<?xml version="1.0" encoding="UTF-8" standalone="no"?>
<!-- Created with Inkscape (http://www.inkscape.org/) -->

<svg
   version="1.1"
   id="svg2"
   xml:space="preserve"
   width="1333.3333"
   height="1066.6667"
   viewBox="0 0 1333.3333 1066.6667"
   sodipodi:docname="mei_091019-04.eps"
   xmlns:inkscape="http://www.inkscape.org/namespaces/inkscape"
   xmlns:sodipodi="http://sodipodi.sourceforge.net/DTD/sodipodi-0.dtd"
   xmlns="http://www.w3.org/2000/svg"
   xmlns:svg="http://www.w3.org/2000/svg"><defs
     id="defs6" /><sodipodi:namedview
     id="namedview4"
     pagecolor="#ffffff"
     bordercolor="#666666"
     borderopacity="1.0"
     inkscape:pageshadow="2"
     inkscape:pageopacity="0.0"
     inkscape:pagecheckerboard="0" /><g
     id="g8"
     inkscape:groupmode="layer"
     inkscape:label="ink_ext_XXXXXX"
     transform="matrix(1.3333333,0,0,-1.3333333,0,1066.6667)"><g
       id="g10"
       transform="scale(0.1)"><path
         d="M 7302.23,3073.94 H 4806.91 l -722.8,722.8 H 388.465 v 20 H 4092.39 l 722.8,-722.8 H 7293.95 L 7736,3535.99 h 525.6 v -20 h -517.32 l -442.05,-442.05"
         style="fill:#ffffff;fill-opacity:1;fill-rule:nonzero;stroke:none"
         id="path12" /><path
         d="m 392.223,3731.55 c -41.524,0 -75.196,33.67 -75.196,75.19 0,41.53 33.672,75.2 75.196,75.2 41.523,0 75.195,-33.67 75.195,-75.2 0,-41.52 -33.672,-75.19 -75.195,-75.19"
         style="fill:#ffffff;fill-opacity:1;fill-rule:nonzero;stroke:none"
         id="path14" /><path
         d="m 8257.84,3450.8 c 41.53,0 75.2,33.67 75.2,75.19 0,41.53 -33.67,75.2 -75.2,75.2 -41.52,0 -75.19,-33.67 -75.19,-75.2 0,-41.52 33.67,-75.19 75.19,-75.19"
         style="fill:#ffffff;fill-opacity:1;fill-rule:nonzero;stroke:none"
         id="path16" /><path
         d="m 7016.66,3796.19 h -2317 v 20 h 2317 v -20"
         style="fill:#ffffff;fill-opacity:1;fill-rule:nonzero;stroke:none"
         id="path18" /><path
         d="m 4703.42,3731 c -41.52,0 -75.19,33.67 -75.19,75.2 0,41.52 33.67,75.19 75.19,75.19 41.52,0 75.2,-33.67 75.2,-75.19 0,-41.53 -33.68,-75.2 -75.2,-75.2"
         style="fill:#ffffff;fill-opacity:1;fill-rule:nonzero;stroke:none"
         id="path20" /><path
         d="m 7012.9,3731 c 41.53,0 75.2,33.67 75.2,75.2 0,41.52 -33.67,75.19 -75.2,75.19 -41.52,0 -75.19,-33.67 -75.19,-75.19 0,-41.53 33.67,-75.2 75.19,-75.2"
         style="fill:#ffffff;fill-opacity:1;fill-rule:nonzero;stroke:none"
         id="path22" /><path
         d="M 3491.84,3329.53 H 388.465 v 20 H 3491.84 v -20"
         style="fill:#ffffff;fill-opacity:1;fill-rule:nonzero;stroke:none"
         id="path24" /><path
         d="m 392.223,3264.33 c -41.524,0 -75.196,33.68 -75.196,75.2 0,41.52 33.672,75.2 75.196,75.2 41.523,0 75.195,-33.68 75.195,-75.2 0,-41.52 -33.672,-75.2 -75.195,-75.2"
         style="fill:#ffffff;fill-opacity:1;fill-rule:nonzero;stroke:none"
         id="path26" /><path
         d="m 3488.08,3264.33 c 41.52,0 75.19,33.68 75.19,75.2 0,41.52 -33.67,75.2 -75.19,75.2 -41.52,0 -75.2,-33.68 -75.2,-75.2 0,-41.52 33.68,-75.2 75.2,-75.2"
         style="fill:#ffffff;fill-opacity:1;fill-rule:nonzero;stroke:none"
         id="path28" /><path
         d="M 9161.56,1567.48 H 7515.23 l -536.27,536.26 H 4328.47 l -769.34,769.33 H 388.465 v 20 H 3567.41 l 769.35,-769.33 h 2650.48 l 536.27,-536.26 h 1638.05 v -20"
         style="fill:#ffffff;fill-opacity:1;fill-rule:nonzero;stroke:none"
         id="path30" /><path
         d="m 392.223,2807.88 c -41.524,0 -75.196,33.67 -75.196,75.19 0,41.53 33.672,75.2 75.196,75.2 41.523,0 75.195,-33.67 75.195,-75.2 0,-41.52 -33.672,-75.19 -75.195,-75.19"
         style="fill:#ffffff;fill-opacity:1;fill-rule:nonzero;stroke:none"
         id="path32" /><path
         d="m 9157.8,1502.28 c 41.52,0 75.19,33.67 75.19,75.19 0,41.53 -33.67,75.2 -75.19,75.2 -41.53,0 -75.2,-33.67 -75.2,-75.2 0,-41.52 33.67,-75.19 75.2,-75.19"
         style="fill:#ffffff;fill-opacity:1;fill-rule:nonzero;stroke:none"
         id="path34" /><path
         d="M 9611.54,2088.65 H 7901.42 l -577.47,577.48 H 4396.47 v 20 h 2935.76 l 577.47,-577.48 h 1701.84 v -20"
         style="fill:#ffffff;fill-opacity:1;fill-rule:nonzero;stroke:none"
         id="path36" /><path
         d="m 4400.23,2600.94 c -41.53,0 -75.2,33.67 -75.2,75.19 0,41.53 33.67,75.2 75.2,75.2 41.52,0 75.19,-33.67 75.19,-75.2 0,-41.52 -33.67,-75.19 -75.19,-75.19"
         style="fill:#ffffff;fill-opacity:1;fill-rule:nonzero;stroke:none"
         id="path38" /><path
         d="m 9607.78,2023.46 c 41.52,0 75.19,33.67 75.19,75.2 0,41.52 -33.67,75.19 -75.19,75.19 -41.53,0 -75.2,-33.67 -75.2,-75.19 0,-41.53 33.67,-75.2 75.2,-75.2"
         style="fill:#ffffff;fill-opacity:1;fill-rule:nonzero;stroke:none"
         id="path40" /><path
         d="M 7302.23,4926.06 H 4806.91 l -722.8,-722.8 H 388.465 v -20 H 4092.39 l 722.8,722.8 H 7293.95 L 7736,4464.01 h 525.6 v 20 h -517.32 l -442.05,442.05"
         style="fill:#ffffff;fill-opacity:1;fill-rule:nonzero;stroke:none"
         id="path42" /><path
         d="m 392.223,4268.45 c -41.524,0 -75.196,-33.67 -75.196,-75.19 0,-41.53 33.672,-75.2 75.196,-75.2 41.523,0 75.195,33.67 75.195,75.2 0,41.52 -33.672,75.19 -75.195,75.19"
         style="fill:#ffffff;fill-opacity:1;fill-rule:nonzero;stroke:none"
         id="path44" /><path
         d="m 8257.84,4549.2 c 41.53,0 75.2,-33.67 75.2,-75.19 0,-41.53 -33.67,-75.2 -75.2,-75.2 -41.52,0 -75.19,33.67 -75.19,75.2 0,41.52 33.67,75.19 75.19,75.19"
         style="fill:#ffffff;fill-opacity:1;fill-rule:nonzero;stroke:none"
         id="path46" /><path
         d="m 7016.66,4203.81 h -2317 v -20 h 2317 v 20"
         style="fill:#ffffff;fill-opacity:1;fill-rule:nonzero;stroke:none"
         id="path48" /><path
         d="m 4703.42,4269 c -41.52,0 -75.19,-33.67 -75.19,-75.2 0,-41.52 33.67,-75.19 75.19,-75.19 41.52,0 75.2,33.67 75.2,75.19 0,41.53 -33.68,75.2 -75.2,75.2"
         style="fill:#ffffff;fill-opacity:1;fill-rule:nonzero;stroke:none"
         id="path50" /><path
         d="m 7012.9,4269 c 41.53,0 75.2,-33.67 75.2,-75.2 0,-41.52 -33.67,-75.19 -75.2,-75.19 -41.52,0 -75.19,33.67 -75.19,75.19 0,41.53 33.67,75.2 75.19,75.2"
         style="fill:#ffffff;fill-opacity:1;fill-rule:nonzero;stroke:none"
         id="path52" /><path
         d="M 3491.84,4670.47 H 388.465 v -20 H 3491.84 v 20"
         style="fill:#ffffff;fill-opacity:1;fill-rule:nonzero;stroke:none"
         id="path54" /><path
         d="m 392.223,4735.67 c -41.524,0 -75.196,-33.68 -75.196,-75.2 0,-41.52 33.672,-75.2 75.196,-75.2 41.523,0 75.195,33.68 75.195,75.2 0,41.52 -33.672,75.2 -75.195,75.2"
         style="fill:#ffffff;fill-opacity:1;fill-rule:nonzero;stroke:none"
         id="path56" /><path
         d="m 3488.08,4735.67 c 41.52,0 75.19,-33.68 75.19,-75.2 0,-41.52 -33.67,-75.2 -75.19,-75.2 -41.52,0 -75.2,33.68 -75.2,75.2 0,41.52 33.68,75.2 75.2,75.2"
         style="fill:#ffffff;fill-opacity:1;fill-rule:nonzero;stroke:none"
         id="path58" /><path
         d="M 9161.56,6432.52 H 7515.23 L 6978.96,5896.26 H 4328.47 L 3559.13,5126.93 H 388.465 v -20 H 3567.41 l 769.35,769.33 h 2650.48 l 536.27,536.26 h 1638.05 v 20"
         style="fill:#ffffff;fill-opacity:1;fill-rule:nonzero;stroke:none"
         id="path60" /><path
         d="m 392.223,5192.12 c -41.524,0 -75.196,-33.67 -75.196,-75.19 0,-41.53 33.672,-75.2 75.196,-75.2 41.523,0 75.195,33.67 75.195,75.2 0,41.52 -33.672,75.19 -75.195,75.19"
         style="fill:#ffffff;fill-opacity:1;fill-rule:nonzero;stroke:none"
         id="path62" /><path
         d="m 9157.8,6497.72 c 41.52,0 75.19,-33.67 75.19,-75.19 0,-41.53 -33.67,-75.2 -75.19,-75.2 -41.53,0 -75.2,33.67 -75.2,75.2 0,41.52 33.67,75.19 75.2,75.19"
         style="fill:#ffffff;fill-opacity:1;fill-rule:nonzero;stroke:none"
         id="path64" /><path
         d="M 9611.54,5911.35 H 7901.42 L 7323.95,5333.87 H 4396.47 v -20 h 2935.76 l 577.47,577.48 h 1701.84 v 20"
         style="fill:#ffffff;fill-opacity:1;fill-rule:nonzero;stroke:none"
         id="path66" /><path
         d="m 4400.23,5399.06 c -41.53,0 -75.2,-33.67 -75.2,-75.19 0,-41.53 33.67,-75.2 75.2,-75.2 41.52,0 75.19,33.67 75.19,75.2 0,41.52 -33.67,75.19 -75.19,75.19"
         style="fill:#ffffff;fill-opacity:1;fill-rule:nonzero;stroke:none"
         id="path68" /><path
         d="m 9607.78,5976.54 c 41.52,0 75.19,-33.67 75.19,-75.2 0,-41.52 -33.67,-75.19 -75.19,-75.19 -41.53,0 -75.2,33.67 -75.2,75.19 0,41.53 33.67,75.2 75.2,75.2"
         style="fill:#ffffff;fill-opacity:1;fill-rule:nonzero;stroke:none"
         id="path70" /></g></g></svg>
